<mxfile host="app.diagrams.net" modified="2021-08-28T12:06:32.398Z" agent="5.0 (Windows NT 10.0; Win64; x64) AppleWebKit/537.36 (KHTML, like Gecko) Chrome/92.0.4515.159 Safari/537.36" etag="ZKhml1CJN6WDawok7YXU" version="15.0.2" type="github">
  <diagram name="Page-1" id="c4acf3e9-155e-7222-9cf6-157b1a14988f">
    <mxGraphModel dx="1038" dy="617" grid="1" gridSize="10" guides="1" tooltips="1" connect="1" arrows="1" fold="1" page="1" pageScale="1" pageWidth="850" pageHeight="1100" background="none" math="0" shadow="0">
      <root>
        <mxCell id="0" />
        <mxCell id="1" parent="0" />
        <mxCell id="kvTaz55kBqlkP1QKOlMg-1" value="&lt;p style=&quot;margin: 0px ; margin-top: 4px ; text-align: center&quot;&gt;&lt;b&gt;Hava Yolu Şirketleri&lt;/b&gt;&lt;/p&gt;&lt;hr size=&quot;1&quot;&gt;&lt;p style=&quot;margin: 0px ; margin-left: 4px&quot;&gt;-kimlik&lt;/p&gt;&lt;p style=&quot;margin: 0px ; margin-left: 4px&quot;&gt;&lt;br&gt;&lt;/p&gt;&lt;hr size=&quot;1&quot;&gt;&lt;p style=&quot;margin: 0px ; margin-left: 4px&quot;&gt;&amp;nbsp;&lt;br&gt;&lt;/p&gt;" style="verticalAlign=top;align=left;overflow=fill;fontSize=12;fontFamily=Helvetica;html=1;" vertex="1" parent="1">
          <mxGeometry x="235" y="30" width="190" height="100" as="geometry" />
        </mxCell>
        <mxCell id="kvTaz55kBqlkP1QKOlMg-5" value="&lt;p style=&quot;margin: 0px ; margin-top: 4px ; text-align: center&quot;&gt;&lt;b&gt;Havaalanı&lt;/b&gt;&lt;/p&gt;&lt;hr size=&quot;1&quot;&gt;&lt;p style=&quot;margin: 0px ; margin-left: 4px&quot;&gt;+ kimlik&lt;br&gt;&lt;/p&gt;&lt;p style=&quot;margin: 0px ; margin-left: 4px&quot;&gt;+ isim&lt;/p&gt;&lt;hr size=&quot;1&quot;&gt;&lt;p style=&quot;margin: 0px ; margin-left: 4px&quot;&gt;&amp;nbsp; &amp;nbsp;&amp;nbsp;&lt;br&gt;&lt;/p&gt;" style="verticalAlign=top;align=left;overflow=fill;fontSize=12;fontFamily=Helvetica;html=1;" vertex="1" parent="1">
          <mxGeometry x="70" y="430" width="190" height="100" as="geometry" />
        </mxCell>
        <mxCell id="kvTaz55kBqlkP1QKOlMg-6" value="&lt;p style=&quot;margin: 0px ; margin-top: 4px ; text-align: center&quot;&gt;&lt;b&gt;Pilot&lt;/b&gt;&lt;/p&gt;&lt;hr size=&quot;1&quot;&gt;&lt;p style=&quot;margin: 0px ; margin-left: 4px&quot;&gt;- deneyim seviyesi&lt;br&gt;&lt;/p&gt;&lt;hr size=&quot;1&quot;&gt;&lt;p style=&quot;margin: 0px ; margin-left: 4px&quot;&gt;+&lt;br&gt;&lt;/p&gt;" style="verticalAlign=top;align=left;overflow=fill;fontSize=12;fontFamily=Helvetica;html=1;" vertex="1" parent="1">
          <mxGeometry x="320" y="220" width="190" height="80" as="geometry" />
        </mxCell>
        <mxCell id="kvTaz55kBqlkP1QKOlMg-7" value="&lt;p style=&quot;margin: 0px ; margin-top: 4px ; text-align: center&quot;&gt;&lt;b&gt;Yardımcı Pilot&lt;/b&gt;&lt;/p&gt;&lt;hr size=&quot;1&quot;&gt;&lt;p style=&quot;margin: 0px ; margin-left: 4px&quot;&gt;&amp;nbsp;&amp;nbsp;&lt;br&gt;&lt;/p&gt;&lt;hr size=&quot;1&quot;&gt;&lt;p style=&quot;margin: 0px ; margin-left: 4px&quot;&gt;&amp;nbsp; &amp;nbsp;&amp;nbsp;&lt;br&gt;&lt;/p&gt;" style="verticalAlign=top;align=left;overflow=fill;fontSize=12;fontFamily=Helvetica;html=1;" vertex="1" parent="1">
          <mxGeometry x="330" y="350" width="170" height="70" as="geometry" />
        </mxCell>
        <mxCell id="kvTaz55kBqlkP1QKOlMg-12" value="" style="endArrow=diamondThin;endFill=0;endSize=24;html=1;strokeWidth=2;entryX=1;entryY=0.75;entryDx=0;entryDy=0;exitX=0;exitY=0.25;exitDx=0;exitDy=0;" edge="1" parent="1" source="kvTaz55kBqlkP1QKOlMg-7" target="kvTaz55kBqlkP1QKOlMg-17">
          <mxGeometry width="160" relative="1" as="geometry">
            <mxPoint x="10" y="390" as="sourcePoint" />
            <mxPoint x="152.01" y="362.47" as="targetPoint" />
          </mxGeometry>
        </mxCell>
        <mxCell id="kvTaz55kBqlkP1QKOlMg-42" value="vardır" style="edgeLabel;html=1;align=center;verticalAlign=middle;resizable=0;points=[];" vertex="1" connectable="0" parent="kvTaz55kBqlkP1QKOlMg-12">
          <mxGeometry x="-0.4051" y="-4" relative="1" as="geometry">
            <mxPoint y="-10" as="offset" />
          </mxGeometry>
        </mxCell>
        <mxCell id="kvTaz55kBqlkP1QKOlMg-14" value="" style="endArrow=diamondThin;endFill=0;endSize=24;html=1;strokeWidth=2;exitX=0.396;exitY=-0.008;exitDx=0;exitDy=0;exitPerimeter=0;entryX=-0.014;entryY=0.444;entryDx=0;entryDy=0;entryPerimeter=0;" edge="1" parent="1" source="kvTaz55kBqlkP1QKOlMg-17" target="kvTaz55kBqlkP1QKOlMg-1">
          <mxGeometry width="160" relative="1" as="geometry">
            <mxPoint x="144.41000000000008" y="227.26999999999998" as="sourcePoint" />
            <mxPoint x="500" y="220" as="targetPoint" />
            <Array as="points">
              <mxPoint x="150" y="92" />
            </Array>
          </mxGeometry>
        </mxCell>
        <mxCell id="kvTaz55kBqlkP1QKOlMg-30" value="gerçekleştirir" style="edgeLabel;html=1;align=center;verticalAlign=middle;resizable=0;points=[];" vertex="1" connectable="0" parent="kvTaz55kBqlkP1QKOlMg-14">
          <mxGeometry x="0.405" y="4" relative="1" as="geometry">
            <mxPoint as="offset" />
          </mxGeometry>
        </mxCell>
        <mxCell id="kvTaz55kBqlkP1QKOlMg-46" value="" style="edgeStyle=orthogonalEdgeStyle;rounded=0;orthogonalLoop=1;jettySize=auto;html=1;endArrow=block;endFill=1;strokeWidth=2;" edge="1" parent="1" source="kvTaz55kBqlkP1QKOlMg-17" target="kvTaz55kBqlkP1QKOlMg-5">
          <mxGeometry relative="1" as="geometry" />
        </mxCell>
        <mxCell id="kvTaz55kBqlkP1QKOlMg-17" value="&lt;p style=&quot;margin: 0px ; margin-top: 4px ; text-align: center&quot;&gt;&lt;b&gt;Uçuşlar&lt;/b&gt;&lt;/p&gt;&lt;hr size=&quot;1&quot;&gt;&lt;p style=&quot;margin: 0px ; margin-left: 4px&quot;&gt;- kimlik&lt;br&gt;&lt;/p&gt;&lt;hr size=&quot;1&quot;&gt;&lt;p style=&quot;margin: 0px ; margin-left: 4px&quot;&gt;+ kalkacağı havaalanı()&lt;br&gt;+ ineceği havaalanı()&lt;/p&gt;&lt;p style=&quot;margin: 0px ; margin-left: 4px&quot;&gt;+ kalkış saati()&lt;/p&gt;&lt;p style=&quot;margin: 0px ; margin-left: 4px&quot;&gt;+ iniş saati ()&lt;/p&gt;" style="verticalAlign=top;align=left;overflow=fill;fontSize=12;fontFamily=Helvetica;html=1;" vertex="1" parent="1">
          <mxGeometry x="70" y="230" width="190" height="120" as="geometry" />
        </mxCell>
        <mxCell id="kvTaz55kBqlkP1QKOlMg-28" value="" style="endArrow=diamondThin;endFill=0;endSize=24;html=1;strokeWidth=2;exitX=0.5;exitY=0;exitDx=0;exitDy=0;" edge="1" parent="1" source="kvTaz55kBqlkP1QKOlMg-31">
          <mxGeometry width="160" relative="1" as="geometry">
            <mxPoint x="420" y="220" as="sourcePoint" />
            <mxPoint x="430" y="110" as="targetPoint" />
            <Array as="points">
              <mxPoint x="700" y="120" />
            </Array>
          </mxGeometry>
        </mxCell>
        <mxCell id="kvTaz55kBqlkP1QKOlMg-29" value="sahiptir" style="edgeLabel;html=1;align=center;verticalAlign=middle;resizable=0;points=[];" vertex="1" connectable="0" parent="kvTaz55kBqlkP1QKOlMg-28">
          <mxGeometry x="-0.3185" y="4" relative="1" as="geometry">
            <mxPoint as="offset" />
          </mxGeometry>
        </mxCell>
        <mxCell id="kvTaz55kBqlkP1QKOlMg-31" value="&lt;p style=&quot;margin: 0px ; margin-top: 4px ; text-align: center&quot;&gt;&lt;b&gt;Uçaklar&amp;nbsp;&lt;/b&gt;&lt;/p&gt;&lt;hr size=&quot;1&quot;&gt;&lt;p style=&quot;margin: 0px ; margin-left: 4px&quot;&gt;- uçak tipi&amp;nbsp; &amp;nbsp;&lt;br&gt;&lt;/p&gt;&lt;hr size=&quot;1&quot;&gt;&lt;p style=&quot;margin: 0px ; margin-left: 4px&quot;&gt;+ çalışma durumu(çalışır,onarım)&lt;br&gt;&lt;/p&gt;" style="verticalAlign=top;align=left;overflow=fill;fontSize=12;fontFamily=Helvetica;html=1;" vertex="1" parent="1">
          <mxGeometry x="620" y="220" width="190" height="90" as="geometry" />
        </mxCell>
        <mxCell id="kvTaz55kBqlkP1QKOlMg-32" value="" style="endArrow=diamondThin;endFill=0;endSize=24;html=1;strokeWidth=2;exitX=0;exitY=0.5;exitDx=0;exitDy=0;entryX=1;entryY=0.25;entryDx=0;entryDy=0;" edge="1" parent="1" source="kvTaz55kBqlkP1QKOlMg-6" target="kvTaz55kBqlkP1QKOlMg-17">
          <mxGeometry width="160" relative="1" as="geometry">
            <mxPoint x="350" y="320" as="sourcePoint" />
            <mxPoint x="510" y="320" as="targetPoint" />
            <Array as="points">
              <mxPoint x="300" y="260" />
            </Array>
          </mxGeometry>
        </mxCell>
        <mxCell id="kvTaz55kBqlkP1QKOlMg-33" value="" style="endArrow=none;endFill=0;endSize=24;html=1;strokeWidth=2;entryX=-0.002;entryY=0.376;entryDx=0;entryDy=0;entryPerimeter=0;exitX=1.017;exitY=0.163;exitDx=0;exitDy=0;exitPerimeter=0;" edge="1" parent="1" source="kvTaz55kBqlkP1QKOlMg-6" target="kvTaz55kBqlkP1QKOlMg-31">
          <mxGeometry width="160" relative="1" as="geometry">
            <mxPoint x="460" y="250" as="sourcePoint" />
            <mxPoint x="620" y="250" as="targetPoint" />
            <Array as="points">
              <mxPoint x="550" y="250" />
            </Array>
          </mxGeometry>
        </mxCell>
        <mxCell id="kvTaz55kBqlkP1QKOlMg-34" value="Text" style="edgeLabel;html=1;align=center;verticalAlign=middle;resizable=0;points=[];" vertex="1" connectable="0" parent="kvTaz55kBqlkP1QKOlMg-33">
          <mxGeometry x="-0.1925" y="-3" relative="1" as="geometry">
            <mxPoint as="offset" />
          </mxGeometry>
        </mxCell>
        <mxCell id="kvTaz55kBqlkP1QKOlMg-35" value="kullanır" style="edgeLabel;html=1;align=center;verticalAlign=middle;resizable=0;points=[];" vertex="1" connectable="0" parent="kvTaz55kBqlkP1QKOlMg-33">
          <mxGeometry x="-0.0895" y="-1" relative="1" as="geometry">
            <mxPoint as="offset" />
          </mxGeometry>
        </mxCell>
        <mxCell id="kvTaz55kBqlkP1QKOlMg-37" value="" style="endArrow=diamondThin;endFill=0;endSize=24;html=1;strokeWidth=2;entryX=0;entryY=0.75;entryDx=0;entryDy=0;exitX=1.012;exitY=0.637;exitDx=0;exitDy=0;exitPerimeter=0;" edge="1" parent="1" source="kvTaz55kBqlkP1QKOlMg-7" target="kvTaz55kBqlkP1QKOlMg-31">
          <mxGeometry width="160" relative="1" as="geometry">
            <mxPoint x="350" y="320" as="sourcePoint" />
            <mxPoint x="510" y="320" as="targetPoint" />
            <Array as="points" />
          </mxGeometry>
        </mxCell>
        <mxCell id="kvTaz55kBqlkP1QKOlMg-38" value="kullanır" style="edgeLabel;html=1;align=center;verticalAlign=middle;resizable=0;points=[];" vertex="1" connectable="0" parent="kvTaz55kBqlkP1QKOlMg-37">
          <mxGeometry x="-0.1521" y="-1" relative="1" as="geometry">
            <mxPoint as="offset" />
          </mxGeometry>
        </mxCell>
        <mxCell id="kvTaz55kBqlkP1QKOlMg-39" value="1...*" style="text;html=1;align=center;verticalAlign=middle;resizable=0;points=[];autosize=1;strokeColor=none;" vertex="1" parent="1">
          <mxGeometry x="510" y="220" width="40" height="20" as="geometry" />
        </mxCell>
        <mxCell id="kvTaz55kBqlkP1QKOlMg-40" value="1" style="text;html=1;align=center;verticalAlign=middle;resizable=0;points=[];autosize=1;strokeColor=none;" vertex="1" parent="1">
          <mxGeometry x="600" y="230" width="20" height="20" as="geometry" />
        </mxCell>
        <mxCell id="kvTaz55kBqlkP1QKOlMg-41" value="vardır" style="text;html=1;align=center;verticalAlign=middle;resizable=0;points=[];autosize=1;strokeColor=none;" vertex="1" parent="1">
          <mxGeometry x="275" y="240" width="50" height="20" as="geometry" />
        </mxCell>
        <mxCell id="kvTaz55kBqlkP1QKOlMg-44" value="" style="endArrow=diamondThin;endFill=0;endSize=24;html=1;strokeWidth=2;rounded=0;" edge="1" parent="1">
          <mxGeometry width="160" relative="1" as="geometry">
            <mxPoint x="380" y="216" as="sourcePoint" />
            <mxPoint x="370" y="120" as="targetPoint" />
            <Array as="points" />
          </mxGeometry>
        </mxCell>
        <mxCell id="kvTaz55kBqlkP1QKOlMg-45" value="vardır" style="text;html=1;align=center;verticalAlign=middle;resizable=0;points=[];autosize=1;strokeColor=none;" vertex="1" parent="1">
          <mxGeometry x="370" y="170" width="50" height="20" as="geometry" />
        </mxCell>
      </root>
    </mxGraphModel>
  </diagram>
</mxfile>
